{
	"accessors" : 
	[
		{
			"bufferView" : 2,
			"byteOffset" : 0,
			"componentType" : 5126,
			"count" : 19760,
			"max" : 
			[
				0.9075471758842468,
				0.4368127584457397,
				0.07805658876895905,
				1
			],
			"min" : 
			[
				0.0697270855307579,
				0.05284162983298302,
				0.0328759141266346,
				1
			],
			"name" : "accessor_color_m0-PolyPaper21_-83344",
			"type" : "VEC4"
		},
		{
			"bufferView" : 2,
			"byteOffset" : 316160,
			"componentType" : 5126,
			"count" : 3943,
			"max" : 
			[
				0.9075471758842468,
				0.05284162983298302,
				0.0328759141266346,
				1
			],
			"min" : 
			[
				0.9075471758842468,
				0.05284162983298302,
				0.0328759141266346,
				1
			],
			"name" : "accessor_color_m1-PolyPaper8_-83350",
			"type" : "VEC4"
		},
		{
			"bufferView" : 0,
			"byteOffset" : 0,
			"componentType" : 5123,
			"count" : 27936,
			"max" : 
			[
				19759
			],
			"min" : 
			[
				0
			],
			"name" : "accessor_indices_0_m0-PolyPaper21_-83344",
			"type" : "SCALAR"
		},
		{
			"bufferView" : 0,
			"byteOffset" : 55872,
			"componentType" : 5123,
			"count" : 6075,
			"max" : 
			[
				3942
			],
			"min" : 
			[
				0
			],
			"name" : "accessor_indices_0_m1-PolyPaper8_-83350",
			"type" : "SCALAR"
		},
		{
			"bufferView" : 1,
			"byteOffset" : 237120,
			"componentType" : 5126,
			"count" : 19760,
			"max" : 
			[
				0.9996606,
				0.9999925,
				0.9995994
			],
			"min" : 
			[
				-0.9996608,
				-0.9999925,
				-0.9995994
			],
			"name" : "accessor_normal_m0-PolyPaper21_-83344",
			"type" : "VEC3"
		},
		{
			"bufferView" : 1,
			"byteOffset" : 521556,
			"componentType" : 5126,
			"count" : 3943,
			"max" : 
			[
				0.9994021,
				0.9973994,
				0.9932924
			],
			"min" : 
			[
				-0.9994023,
				-0.9973994,
				-0.9932922
			],
			"name" : "accessor_normal_m1-PolyPaper8_-83350",
			"type" : "VEC3"
		},
		{
			"bufferView" : 1,
			"byteOffset" : 0,
			"componentType" : 5126,
			"count" : 19760,
			"max" : 
			[
				0.6772312,
				1.499211,
				-0.5673777
			],
			"min" : 
			[
				0.1501222,
				1.003678,
				-0.8973904
			],
			"name" : "accessor_position_m0-PolyPaper21_-83344",
			"type" : "VEC3"
		},
		{
			"bufferView" : 1,
			"byteOffset" : 474240,
			"componentType" : 5126,
			"count" : 3943,
			"max" : 
			[
				0.6257445,
				1.474463,
				-0.503295
			],
			"min" : 
			[
				0.2146887,
				0.9002762,
				-0.7761523
			],
			"name" : "accessor_position_m1-PolyPaper8_-83350",
			"type" : "VEC3"
		}
	],
	"asset" : 
	{
		"copyright" : "Unknown",
		"generator" : "glTF 1-to-2 Upgrader for Google Blocks",
		"version" : "2.0"
	},
	"bufferViews" : 
	[
		{
			"buffer" : 0,
			"byteLength" : 68022,
			"byteOffset" : 0,
			"name" : "ushortBufferView",
			"target" : 34963
		},
		{
			"buffer" : 0,
			"byteLength" : 568872,
			"byteOffset" : 68022,
			"byteStride" : 12,
			"name" : "vec3BufferView",
			"target" : 34962
		},
		{
			"buffer" : 0,
			"byteLength" : 379248,
			"byteOffset" : 636894,
			"byteStride" : 16,
			"name" : "vec4BufferView",
			"target" : 34962
		}
	],
	"buffers" : 
	[
		{
			"byteLength" : 1016142,
			"name" : "model",
			"uri" : "model.bin"
		}
	],
	"materials" : 
	[
		{
			"alphaMode" : "OPAQUE",
			"doubleSided" : false,
			"name" : "BlocksPaper",
			"pbrMetallicRoughness" : 
			{
				"baseColorFactor" : 
				[
					1,
					1,
					1,
					1
				],
				"metallicFactor" : 0,
				"roughnessFactor" : 0.6
			}
		},
		{
			"alphaMode" : "BLEND",
			"doubleSided" : false,
			"name" : "BlocksGlass",
			"pbrMetallicRoughness" : 
			{
				"baseColorFactor" : 
				[
					0.2,
					0.2,
					1,
					0.3
				],
				"metallicFactor" : 1,
				"roughnessFactor" : 0.4
			}
		},
		{
			"alphaMode" : "OPAQUE",
			"doubleSided" : true,
			"name" : "BlocksGem",
			"pbrMetallicRoughness" : 
			{
				"baseColorFactor" : 
				[
					1,
					0.4,
					1,
					1
				],
				"metallicFactor" : 0,
				"roughnessFactor" : 0.1
			}
		}
	],
	"meshes" : 
	[
		{
			"name" : "mesh_m0-PolyPaper21_-83344",
			"primitives" : 
			[
				{
					"attributes" : 
					{
						"COLOR_0" : 0,
						"NORMAL" : 4,
						"POSITION" : 6
					},
					"indices" : 2,
					"material" : 0,
					"mode" : 4
				}
			]
		},
		{
			"name" : "mesh_m1-PolyPaper8_-83350",
			"primitives" : 
			[
				{
					"attributes" : 
					{
						"COLOR_0" : 1,
						"NORMAL" : 5,
						"POSITION" : 7
					},
					"indices" : 3,
					"material" : 0,
					"mode" : 4
				}
			]
		}
	],
	"nodes" : 
	[
		{
			"matrix" : 
			[
				1,
				0,
				0,
				0,
				0,
				1,
				0,
				0,
				0,
				0,
				1,
				0,
				0,
				0,
				0,
				1
			],
			"mesh" : 0,
			"name" : "node_MeshObject-1253731328-PolyPaper21"
		},
		{
			"matrix" : 
			[
				1,
				0,
				0,
				0,
				0,
				1,
				0,
				0,
				0,
				0,
				1,
				0,
				0,
				0,
				0,
				1
			],
			"mesh" : 1,
			"name" : "node_MeshObject1897077760-PolyPaper8"
		}
	],
	"scene" : 0,
	"scenes" : 
	[
		{
			"extras" : {},
			"name" : "defaultScene",
			"nodes" : 
			[
				0,
				1
			]
		}
	]
}