{
	"accessors" : 
	[
		{
			"bufferView" : 2,
			"byteOffset" : 0,
			"componentType" : 5126,
			"count" : 3208,
			"max" : 
			[
				1,
				0.3203815817832947,
				0,
				1
			],
			"min" : 
			[
				1,
				0.3203815817832947,
				0,
				1
			],
			"name" : "accessor_color_m0-PolyPaper13_-27630",
			"type" : "VEC4"
		},
		{
			"bufferView" : 2,
			"byteOffset" : 51328,
			"componentType" : 5126,
			"count" : 408,
			"max" : 
			[
				1,
				1,
				1,
				1
			],
			"min" : 
			[
				1,
				1,
				1,
				1
			],
			"name" : "accessor_color_m1-PolyGem25_-19282",
			"type" : "VEC4"
		},
		{
			"bufferView" : 0,
			"byteOffset" : 0,
			"componentType" : 5123,
			"count" : 4908,
			"max" : 
			[
				3207
			],
			"min" : 
			[
				0
			],
			"name" : "accessor_indices_0_m0-PolyPaper13_-27630",
			"type" : "SCALAR"
		},
		{
			"bufferView" : 0,
			"byteOffset" : 9816,
			"componentType" : 5123,
			"count" : 576,
			"max" : 
			[
				407
			],
			"min" : 
			[
				0
			],
			"name" : "accessor_indices_0_m1-PolyGem25_-19282",
			"type" : "SCALAR"
		},
		{
			"bufferView" : 1,
			"byteOffset" : 38496,
			"componentType" : 5126,
			"count" : 3208,
			"max" : 
			[
				0.9957197,
				0.9948118,
				0.9990856
			],
			"min" : 
			[
				-0.9968122,
				-0.9948121,
				-0.9990894
			],
			"name" : "accessor_normal_m0-PolyPaper13_-27630",
			"type" : "VEC3"
		},
		{
			"bufferView" : 1,
			"byteOffset" : 81888,
			"componentType" : 5126,
			"count" : 408,
			"max" : 
			[
				0.9847243,
				0.9988465,
				0.9947009
			],
			"min" : 
			[
				-0.9847244000000001,
				-0.9988466,
				-0.9947009
			],
			"name" : "accessor_normal_m1-PolyGem25_-19282",
			"type" : "VEC3"
		},
		{
			"bufferView" : 1,
			"byteOffset" : 0,
			"componentType" : 5126,
			"count" : 3208,
			"max" : 
			[
				0.9278265,
				2.074371,
				0.07139897000000001
			],
			"min" : 
			[
				0.8278607,
				1.805931,
				-0.02822866
			],
			"name" : "accessor_position_m0-PolyPaper13_-27630",
			"type" : "VEC3"
		},
		{
			"bufferView" : 1,
			"byteOffset" : 76992,
			"componentType" : 5126,
			"count" : 408,
			"max" : 
			[
				0.9943067,
				1.854424,
				0.135036
			],
			"min" : 
			[
				0.7673415,
				1.626822,
				-0.08911987
			],
			"name" : "accessor_position_m1-PolyGem25_-19282",
			"type" : "VEC3"
		}
	],
	"asset" : 
	{
		"copyright" : "Unknown",
		"generator" : "glTF 1-to-2 Upgrader for Google Blocks",
		"version" : "2.0"
	},
	"bufferViews" : 
	[
		{
			"buffer" : 0,
			"byteLength" : 10968,
			"byteOffset" : 0,
			"name" : "ushortBufferView",
			"target" : 34963
		},
		{
			"buffer" : 0,
			"byteLength" : 86784,
			"byteOffset" : 10968,
			"byteStride" : 12,
			"name" : "vec3BufferView",
			"target" : 34962
		},
		{
			"buffer" : 0,
			"byteLength" : 57856,
			"byteOffset" : 97752,
			"byteStride" : 16,
			"name" : "vec4BufferView",
			"target" : 34962
		}
	],
	"buffers" : 
	[
		{
			"byteLength" : 155608,
			"name" : "model",
			"uri" : "model.bin"
		}
	],
	"materials" : 
	[
		{
			"alphaMode" : "OPAQUE",
			"doubleSided" : false,
			"name" : "BlocksPaper",
			"pbrMetallicRoughness" : 
			{
				"baseColorFactor" : 
				[
					1,
					1,
					1,
					1
				],
				"metallicFactor" : 0,
				"roughnessFactor" : 0.6
			}
		},
		{
			"alphaMode" : "BLEND",
			"doubleSided" : false,
			"name" : "BlocksGlass",
			"pbrMetallicRoughness" : 
			{
				"baseColorFactor" : 
				[
					0.2,
					0.2,
					1,
					0.3
				],
				"metallicFactor" : 1,
				"roughnessFactor" : 0.4
			}
		},
		{
			"alphaMode" : "OPAQUE",
			"doubleSided" : true,
			"name" : "BlocksGem",
			"pbrMetallicRoughness" : 
			{
				"baseColorFactor" : 
				[
					1,
					0.4,
					1,
					1
				],
				"metallicFactor" : 0,
				"roughnessFactor" : 0.1
			}
		}
	],
	"meshes" : 
	[
		{
			"name" : "mesh_m0-PolyPaper13_-27630",
			"primitives" : 
			[
				{
					"attributes" : 
					{
						"COLOR_0" : 0,
						"NORMAL" : 4,
						"POSITION" : 6
					},
					"indices" : 2,
					"material" : 0,
					"mode" : 4
				}
			]
		},
		{
			"name" : "mesh_m1-PolyGem25_-19282",
			"primitives" : 
			[
				{
					"attributes" : 
					{
						"COLOR_0" : 1,
						"NORMAL" : 5,
						"POSITION" : 7
					},
					"indices" : 3,
					"material" : 2,
					"mode" : 4
				}
			]
		}
	],
	"nodes" : 
	[
		{
			"matrix" : 
			[
				1,
				0,
				0,
				0,
				0,
				1,
				0,
				0,
				0,
				0,
				1,
				0,
				0,
				0,
				0,
				1
			],
			"mesh" : 0,
			"name" : "node_MeshObject487294144-PolyPaper13"
		},
		{
			"matrix" : 
			[
				1,
				0,
				0,
				0,
				0,
				1,
				0,
				0,
				0,
				0,
				1,
				0,
				0,
				0,
				0,
				1
			],
			"mesh" : 1,
			"name" : "node_MeshObject624428288-PolyGem25"
		}
	],
	"scene" : 0,
	"scenes" : 
	[
		{
			"extras" : {},
			"name" : "defaultScene",
			"nodes" : 
			[
				0,
				1
			]
		}
	]
}